<mxfile host="65bd71144e">
    <diagram id="qsP_TKMhfXaEYNempMdQ" name="Page-1">
        <mxGraphModel dx="1011" dy="809" grid="0" gridSize="10" guides="1" tooltips="1" connect="1" arrows="1" fold="1" page="1" pageScale="1" pageWidth="827" pageHeight="1169" math="0" shadow="0">
            <root>
                <mxCell id="0"/>
                <mxCell id="1" parent="0"/>
                <mxCell id="2" value="" style="shape=table;startSize=0;container=1;collapsible=0;childLayout=tableLayout;" parent="1" vertex="1">
                    <mxGeometry x="30" y="130" width="660" height="600" as="geometry"/>
                </mxCell>
                <mxCell id="3" value="" style="shape=partialRectangle;collapsible=0;dropTarget=0;pointerEvents=0;fillColor=none;top=0;left=0;bottom=0;right=0;points=[[0,0.5],[1,0.5]];portConstraint=eastwest;" parent="2" vertex="1">
                    <mxGeometry width="660" height="45" as="geometry"/>
                </mxCell>
                <mxCell id="4" value="Empleado&amp;nbsp;" style="shape=partialRectangle;html=1;whiteSpace=wrap;connectable=0;overflow=hidden;fillColor=none;top=0;left=0;bottom=0;right=0;pointerEvents=1;" parent="3" vertex="1">
                    <mxGeometry width="220" height="45" as="geometry">
                        <mxRectangle width="220" height="45" as="alternateBounds"/>
                    </mxGeometry>
                </mxCell>
                <mxCell id="5" value="interfaz de usuario" style="shape=partialRectangle;html=1;whiteSpace=wrap;connectable=0;overflow=hidden;fillColor=none;top=0;left=0;bottom=0;right=0;pointerEvents=1;" parent="3" vertex="1">
                    <mxGeometry x="220" width="220" height="45" as="geometry">
                        <mxRectangle width="220" height="45" as="alternateBounds"/>
                    </mxGeometry>
                </mxCell>
                <mxCell id="6" value="logica de negocio" style="shape=partialRectangle;html=1;whiteSpace=wrap;connectable=0;overflow=hidden;fillColor=none;top=0;left=0;bottom=0;right=0;pointerEvents=1;" parent="3" vertex="1">
                    <mxGeometry x="440" width="220" height="45" as="geometry">
                        <mxRectangle width="220" height="45" as="alternateBounds"/>
                    </mxGeometry>
                </mxCell>
                <mxCell id="7" value="" style="shape=partialRectangle;collapsible=0;dropTarget=0;pointerEvents=0;fillColor=none;top=0;left=0;bottom=0;right=0;points=[[0,0.5],[1,0.5]];portConstraint=eastwest;" parent="2" vertex="1">
                    <mxGeometry y="45" width="660" height="555" as="geometry"/>
                </mxCell>
                <mxCell id="8" value="" style="shape=partialRectangle;html=1;whiteSpace=wrap;connectable=0;overflow=hidden;fillColor=none;top=0;left=0;bottom=0;right=0;pointerEvents=1;" parent="7" vertex="1">
                    <mxGeometry width="220" height="555" as="geometry">
                        <mxRectangle width="220" height="555" as="alternateBounds"/>
                    </mxGeometry>
                </mxCell>
                <mxCell id="9" value="" style="shape=partialRectangle;html=1;whiteSpace=wrap;connectable=0;overflow=hidden;fillColor=none;top=0;left=0;bottom=0;right=0;pointerEvents=1;" parent="7" vertex="1">
                    <mxGeometry x="220" width="220" height="555" as="geometry">
                        <mxRectangle width="220" height="555" as="alternateBounds"/>
                    </mxGeometry>
                </mxCell>
                <mxCell id="10" value="" style="shape=partialRectangle;html=1;whiteSpace=wrap;connectable=0;overflow=hidden;fillColor=none;top=0;left=0;bottom=0;right=0;pointerEvents=1;" parent="7" vertex="1">
                    <mxGeometry x="440" width="220" height="555" as="geometry">
                        <mxRectangle width="220" height="555" as="alternateBounds"/>
                    </mxGeometry>
                </mxCell>
                <mxCell id="11" value="ACTUALIZAR GASTOS&amp;nbsp;" style="text;html=1;resizable=0;autosize=1;align=center;verticalAlign=middle;points=[];rounded=0;fillColor=#008a00;fontColor=#ffffff;strokeColor=#005700;" parent="1" vertex="1">
                    <mxGeometry x="285" y="70" width="150" height="20" as="geometry"/>
                </mxCell>
                <mxCell id="12" style="edgeStyle=none;html=1;entryX=0;entryY=0.5;entryDx=0;entryDy=0;" parent="1" source="13" edge="1">
                    <mxGeometry relative="1" as="geometry">
                        <mxPoint x="90" y="210" as="targetPoint"/>
                    </mxGeometry>
                </mxCell>
                <mxCell id="13" value="" style="ellipse;html=1;fillColor=#FFFFFF;" parent="1" vertex="1">
                    <mxGeometry x="40" y="195" width="30" height="30" as="geometry"/>
                </mxCell>
                <mxCell id="14" value="" style="ellipse;html=1;shape=endState;fillColor=#000000;strokeColor=#ff0000;" parent="1" vertex="1">
                    <mxGeometry x="60" y="580" width="30" height="30" as="geometry"/>
                </mxCell>
                <mxCell id="15" value="" style="edgeStyle=none;html=1;" parent="1" source="16" target="18" edge="1">
                    <mxGeometry relative="1" as="geometry"/>
                </mxCell>
                <mxCell id="16" value="&lt;span style=&quot;color: rgb(0 , 0 , 0)&quot;&gt;&amp;nbsp;consulta Gastos&lt;/span&gt;" style="html=1;align=center;verticalAlign=middle;rounded=1;absoluteArcSize=1;arcSize=10;dashed=0;fillColor=#FFFFFF;" parent="1" vertex="1">
                    <mxGeometry x="90" y="185" width="110" height="50" as="geometry"/>
                </mxCell>
                <mxCell id="17" style="edgeStyle=none;html=1;entryX=0.5;entryY=0;entryDx=0;entryDy=0;" parent="1" source="18" target="21" edge="1">
                    <mxGeometry relative="1" as="geometry"/>
                </mxCell>
                <mxCell id="18" value="&lt;span style=&quot;color: rgb(0 , 0 , 0)&quot;&gt;Autentica el &lt;br&gt;usuario de gastos&amp;nbsp;&lt;/span&gt;" style="html=1;align=center;verticalAlign=middle;rounded=1;absoluteArcSize=1;arcSize=10;dashed=0;fillColor=#FFFFFF;" parent="1" vertex="1">
                    <mxGeometry x="295" y="185" width="110" height="50" as="geometry"/>
                </mxCell>
                <mxCell id="19" style="edgeStyle=none;html=1;entryX=0;entryY=0.5;entryDx=0;entryDy=0;fontColor=#00CC00;fillColor=#d5e8d4;strokeColor=#82b366;gradientColor=#97d077;exitX=1;exitY=0.5;exitDx=0;exitDy=0;" parent="1" source="21" target="27" edge="1">
                    <mxGeometry relative="1" as="geometry">
                        <mxPoint x="350" y="370" as="targetPoint"/>
                        <Array as="points">
                            <mxPoint x="490" y="295"/>
                            <mxPoint x="490" y="215"/>
                        </Array>
                    </mxGeometry>
                </mxCell>
                <mxCell id="20" style="edgeStyle=none;html=1;entryX=0.75;entryY=0.5;entryDx=0;entryDy=0;entryPerimeter=0;fontColor=#FFFFFF;fillColor=#e51400;strokeColor=#B20000;" parent="1" source="21" target="39" edge="1">
                    <mxGeometry relative="1" as="geometry">
                        <Array as="points">
                            <mxPoint x="230" y="295"/>
                            <mxPoint x="230" y="570"/>
                        </Array>
                    </mxGeometry>
                </mxCell>
                <mxCell id="21" value="&lt;span style=&quot;color: rgb(0 , 0 , 0)&quot;&gt;Autenticado&lt;/span&gt;" style="rhombus;whiteSpace=wrap;html=1;fillColor=#ffffc0;strokeColor=#ff0000;" parent="1" vertex="1">
                    <mxGeometry x="305" y="270" width="90" height="50" as="geometry"/>
                </mxCell>
                <mxCell id="22" value="&lt;font color=&quot;#ffffff&quot;&gt;NO&lt;/font&gt;" style="text;html=1;resizable=0;autosize=1;align=center;verticalAlign=middle;points=[];fillColor=none;strokeColor=none;rounded=0;fontColor=#00CC00;" parent="1" vertex="1">
                    <mxGeometry x="275" y="300" width="30" height="20" as="geometry"/>
                </mxCell>
                <mxCell id="23" value="&lt;font color=&quot;#ffffff&quot;&gt;SI&lt;/font&gt;" style="text;html=1;resizable=0;autosize=1;align=center;verticalAlign=middle;points=[];fillColor=none;strokeColor=none;rounded=0;fontColor=#00CC00;" parent="1" vertex="1">
                    <mxGeometry x="405" y="300" width="30" height="20" as="geometry"/>
                </mxCell>
                <mxCell id="26" style="edgeStyle=none;html=1;entryX=1;entryY=0.5;entryDx=0;entryDy=0;fontColor=#FFFFFF;exitX=0.5;exitY=1;exitDx=0;exitDy=0;" parent="1" source="27" target="37" edge="1">
                    <mxGeometry relative="1" as="geometry">
                        <Array as="points">
                            <mxPoint x="595" y="270"/>
                            <mxPoint x="500" y="270"/>
                            <mxPoint x="500" y="385"/>
                        </Array>
                    </mxGeometry>
                </mxCell>
                <mxCell id="27" value="&lt;span style=&quot;color: rgb(0 , 0 , 0)&quot;&gt;Consulta datos &lt;br&gt;de entrada&amp;nbsp;&lt;/span&gt;" style="html=1;align=center;verticalAlign=middle;rounded=1;absoluteArcSize=1;arcSize=10;dashed=0;fillColor=#FFFFFF;" parent="1" vertex="1">
                    <mxGeometry x="530" y="185" width="130" height="60" as="geometry"/>
                </mxCell>
                <mxCell id="48" style="edgeStyle=none;html=1;entryX=0;entryY=0.5;entryDx=0;entryDy=0;" parent="1" source="35" target="45" edge="1">
                    <mxGeometry relative="1" as="geometry">
                        <Array as="points">
                            <mxPoint x="490" y="475"/>
                            <mxPoint x="490" y="400"/>
                            <mxPoint x="510" y="400"/>
                            <mxPoint x="510" y="335"/>
                        </Array>
                    </mxGeometry>
                </mxCell>
                <mxCell id="35" value="&lt;font color=&quot;#000000&quot;&gt;Modifica datos &lt;br&gt;de entrada&amp;nbsp;&lt;/font&gt;" style="html=1;align=center;verticalAlign=middle;rounded=1;absoluteArcSize=1;arcSize=10;dashed=0;fillColor=#FFFFFF;" parent="1" vertex="1">
                    <mxGeometry x="287.5" y="450" width="120" height="50" as="geometry"/>
                </mxCell>
                <mxCell id="41" style="edgeStyle=none;html=1;" parent="1" source="37" target="35" edge="1">
                    <mxGeometry relative="1" as="geometry"/>
                </mxCell>
                <mxCell id="37" value="&lt;font color=&quot;#000000&quot;&gt;Muestra datos &lt;br&gt;de entrada&amp;nbsp;&lt;/font&gt;" style="html=1;align=center;verticalAlign=middle;rounded=1;absoluteArcSize=1;arcSize=10;dashed=0;fillColor=#FFFFFF;" parent="1" vertex="1">
                    <mxGeometry x="275" y="360" width="145" height="50" as="geometry"/>
                </mxCell>
                <mxCell id="38" style="edgeStyle=none;html=1;entryX=1;entryY=0.5;entryDx=0;entryDy=0;fontColor=#FFFFFF;" parent="1" source="39" target="14" edge="1">
                    <mxGeometry relative="1" as="geometry"/>
                </mxCell>
                <mxCell id="39" value="" style="shape=line;html=1;strokeWidth=6;strokeColor=#ff0000;rotation=-90;" parent="1" vertex="1">
                    <mxGeometry x="90" y="590" width="100" height="10" as="geometry"/>
                </mxCell>
                <mxCell id="57" style="edgeStyle=none;html=1;entryX=1;entryY=0.5;entryDx=0;entryDy=0;" parent="1" source="42" target="56" edge="1">
                    <mxGeometry relative="1" as="geometry">
                        <Array as="points">
                            <mxPoint x="595" y="645"/>
                        </Array>
                    </mxGeometry>
                </mxCell>
                <mxCell id="42" value="&lt;font color=&quot;#000000&quot;&gt;lmacena datos &lt;br&gt;modificados&lt;br&gt;de entrada&amp;nbsp;&lt;/font&gt;" style="html=1;align=center;verticalAlign=middle;rounded=1;absoluteArcSize=1;arcSize=10;dashed=0;fillColor=#FFFFFF;" parent="1" vertex="1">
                    <mxGeometry x="535" y="500" width="120" height="50" as="geometry"/>
                </mxCell>
                <mxCell id="50" style="edgeStyle=none;html=1;entryX=0.5;entryY=0;entryDx=0;entryDy=0;fillColor=#d5e8d4;strokeColor=#82b366;gradientColor=#97d077;" parent="1" source="44" target="42" edge="1">
                    <mxGeometry relative="1" as="geometry"/>
                </mxCell>
                <mxCell id="51" style="edgeStyle=none;html=1;entryX=1;entryY=0.5;entryDx=0;entryDy=0;fillColor=#e51400;strokeColor=#B20000;" parent="1" source="44" target="49" edge="1">
                    <mxGeometry relative="1" as="geometry">
                        <Array as="points">
                            <mxPoint x="500" y="425"/>
                            <mxPoint x="500" y="480"/>
                            <mxPoint x="500" y="562"/>
                        </Array>
                    </mxGeometry>
                </mxCell>
                <mxCell id="44" value="&lt;span style=&quot;color: rgb(0 , 0 , 0)&quot;&gt;Autenticado&lt;/span&gt;" style="rhombus;whiteSpace=wrap;html=1;fillColor=#ffffc0;strokeColor=#ff0000;" parent="1" vertex="1">
                    <mxGeometry x="550" y="400" width="90" height="50" as="geometry"/>
                </mxCell>
                <mxCell id="46" style="edgeStyle=none;html=1;entryX=0.5;entryY=0;entryDx=0;entryDy=0;" parent="1" source="45" target="44" edge="1">
                    <mxGeometry relative="1" as="geometry"/>
                </mxCell>
                <mxCell id="45" value="&lt;font color=&quot;#000000&quot;&gt;Autentica datos &lt;br&gt;de entrada&amp;nbsp;&lt;/font&gt;" style="html=1;align=center;verticalAlign=middle;rounded=1;absoluteArcSize=1;arcSize=10;dashed=0;fillColor=#FFFFFF;" parent="1" vertex="1">
                    <mxGeometry x="535" y="310" width="120" height="50" as="geometry"/>
                </mxCell>
                <mxCell id="52" style="edgeStyle=none;html=1;entryX=0;entryY=0.5;entryDx=0;entryDy=0;" parent="1" source="49" target="37" edge="1">
                    <mxGeometry relative="1" as="geometry">
                        <Array as="points">
                            <mxPoint x="260" y="562"/>
                            <mxPoint x="260" y="385"/>
                        </Array>
                    </mxGeometry>
                </mxCell>
                <mxCell id="49" value="Error de datos&amp;nbsp;&amp;nbsp;" style="whiteSpace=wrap;html=1;fillColor=#FFFFFF;fontColor=#000000;rounded=1;" parent="1" vertex="1">
                    <mxGeometry x="287.5" y="539.5" width="120" height="45" as="geometry"/>
                </mxCell>
                <mxCell id="54" value="&lt;font color=&quot;#ffffff&quot;&gt;SI&lt;/font&gt;" style="text;html=1;resizable=0;autosize=1;align=center;verticalAlign=middle;points=[];fillColor=none;strokeColor=none;rounded=0;fontColor=#00CC00;" parent="1" vertex="1">
                    <mxGeometry x="600" y="460" width="30" height="20" as="geometry"/>
                </mxCell>
                <mxCell id="55" value="&lt;font color=&quot;#ffffff&quot;&gt;NO&lt;/font&gt;" style="text;html=1;resizable=0;autosize=1;align=center;verticalAlign=middle;points=[];fillColor=none;strokeColor=none;rounded=0;fontColor=#00CC00;" parent="1" vertex="1">
                    <mxGeometry x="520" y="430" width="30" height="20" as="geometry"/>
                </mxCell>
                <mxCell id="58" style="edgeStyle=none;html=1;entryX=0.25;entryY=0.5;entryDx=0;entryDy=0;entryPerimeter=0;" parent="1" source="56" target="39" edge="1">
                    <mxGeometry relative="1" as="geometry">
                        <Array as="points">
                            <mxPoint x="220" y="645"/>
                            <mxPoint x="220" y="620"/>
                        </Array>
                    </mxGeometry>
                </mxCell>
                <mxCell id="56" value="Muestra nuevos datos de gastos&amp;nbsp;" style="whiteSpace=wrap;html=1;fillColor=#FFFFFF;fontColor=#000000;rounded=1;" parent="1" vertex="1">
                    <mxGeometry x="285" y="620" width="130" height="50" as="geometry"/>
                </mxCell>
            </root>
        </mxGraphModel>
    </diagram>
</mxfile>